<svg width="87" height="16" viewBox="0 0 87 16" fill="none" xmlns="http://www.w3.org/2000/svg">
<path d="M0.434659 15V0.454545H9.75284V2.66335H3.0696V6.61222H9.11364V8.82102H3.0696V15H0.434659ZM11.8835 15V4.09091H14.3764V5.90909H14.4901C14.6889 5.27936 15.0298 4.79403 15.5128 4.45312C16.0005 4.10748 16.5568 3.93466 17.1818 3.93466C17.3239 3.93466 17.4825 3.94176 17.6577 3.95597C17.8376 3.96544 17.9867 3.98201 18.1051 4.00568V6.37074C17.9962 6.33286 17.8234 6.29972 17.5866 6.27131C17.3546 6.23816 17.1297 6.22159 16.9119 6.22159C16.4432 6.22159 16.0218 6.32339 15.6477 6.52699C15.2784 6.72585 14.9872 7.00284 14.7741 7.35795C14.5611 7.71307 14.4545 8.12263 14.4545 8.58665V15H11.8835ZM24.1225 15.2131C23.0572 15.2131 22.1339 14.9787 21.3526 14.5099C20.5714 14.0412 19.9653 13.3854 19.5344 12.5426C19.1083 11.6998 18.8952 10.715 18.8952 9.58807C18.8952 8.46117 19.1083 7.47396 19.5344 6.62642C19.9653 5.77888 20.5714 5.12074 21.3526 4.65199C22.1339 4.18324 23.0572 3.94886 24.1225 3.94886C25.1879 3.94886 26.1112 4.18324 26.8924 4.65199C27.6737 5.12074 28.2773 5.77888 28.7035 6.62642C29.1344 7.47396 29.3498 8.46117 29.3498 9.58807C29.3498 10.715 29.1344 11.6998 28.7035 12.5426C28.2773 13.3854 27.6737 14.0412 26.8924 14.5099C26.1112 14.9787 25.1879 15.2131 24.1225 15.2131ZM24.1367 13.1534C24.7144 13.1534 25.1973 12.9948 25.5856 12.6776C25.9738 12.3556 26.2627 11.9247 26.4521 11.3849C26.6462 10.8452 26.7433 10.2438 26.7433 9.58097C26.7433 8.91335 26.6462 8.30966 26.4521 7.76989C26.2627 7.22538 25.9738 6.79214 25.5856 6.47017C25.1973 6.1482 24.7144 5.98722 24.1367 5.98722C23.5449 5.98722 23.0524 6.1482 22.6594 6.47017C22.2712 6.79214 21.98 7.22538 21.7859 7.76989C21.5965 8.30966 21.5018 8.91335 21.5018 9.58097C21.5018 10.2438 21.5965 10.8452 21.7859 11.3849C21.98 11.9247 22.2712 12.3556 22.6594 12.6776C23.0524 12.9948 23.5449 13.1534 24.1367 13.1534ZM34.103 8.60795V15H31.532V4.09091H33.9893V5.9446H34.1172C34.3681 5.33381 34.7682 4.84848 35.3175 4.48864C35.8714 4.12879 36.5556 3.94886 37.37 3.94886C38.1229 3.94886 38.7786 4.10985 39.3374 4.43182C39.9008 4.75379 40.3364 5.22017 40.6442 5.83097C40.9567 6.44176 41.1106 7.18276 41.1058 8.05398V15H38.5348V8.4517C38.5348 7.72254 38.3454 7.15199 37.9666 6.74006C37.5926 6.32812 37.0741 6.12216 36.4112 6.12216C35.9614 6.12216 35.5613 6.22159 35.2109 6.42045C34.8653 6.61458 34.593 6.89631 34.3942 7.26562C34.2 7.63494 34.103 8.08239 34.103 8.60795ZM49.1669 4.09091V6.07955H42.8956V4.09091H49.1669ZM44.4439 1.47727H47.0149V11.7188C47.0149 12.0644 47.067 12.3295 47.1712 12.5142C47.2801 12.6941 47.4221 12.8172 47.5973 12.8835C47.7725 12.9498 47.9666 12.983 48.1797 12.983C48.3407 12.983 48.4875 12.9711 48.62 12.9474C48.7573 12.9238 48.8615 12.9025 48.9325 12.8835L49.3658 14.8935C49.2285 14.9408 49.032 14.9929 48.7763 15.0497C48.5253 15.1065 48.2176 15.1397 47.853 15.1491C47.209 15.1681 46.629 15.071 46.1129 14.858C45.5968 14.6402 45.1873 14.304 44.8842 13.8494C44.5859 13.3949 44.4392 12.8267 44.4439 12.1449V1.47727Z" fill="#4F4F4F"/>
<path d="M53.2987 15H50.4862L55.6069 0.454545H58.8597L63.9876 15H61.1751L57.2901 3.4375H57.1765L53.2987 15ZM53.391 9.29688H61.0614V11.4134H53.391V9.29688ZM74.2362 6.97443L71.8924 7.23011C71.8261 6.99337 71.7101 6.77083 71.5444 6.5625C71.3834 6.35417 71.1656 6.18608 70.891 6.05824C70.6164 5.9304 70.2802 5.86648 69.8825 5.86648C69.3474 5.86648 68.8976 5.98248 68.533 6.21449C68.1732 6.4465 67.9956 6.74716 68.0004 7.11648C67.9956 7.43371 68.1116 7.69176 68.3484 7.89062C68.5898 8.08949 68.9876 8.25284 69.5415 8.38068L71.4023 8.77841C72.4345 9.00095 73.2016 9.35369 73.7035 9.83665C74.2101 10.3196 74.4658 10.9517 74.4705 11.733C74.4658 12.4195 74.2646 13.0256 73.8668 13.5511C73.4738 14.072 72.927 14.4792 72.2262 14.7727C71.5254 15.0663 70.7205 15.2131 69.8114 15.2131C68.4762 15.2131 67.4014 14.9337 66.587 14.375C65.7726 13.8116 65.2873 13.0279 65.131 12.0241L67.6381 11.7827C67.7518 12.2751 67.9933 12.6468 68.3626 12.8977C68.7319 13.1487 69.2125 13.2741 69.8043 13.2741C70.4151 13.2741 70.9052 13.1487 71.2745 12.8977C71.6486 12.6468 71.8356 12.3366 71.8356 11.9673C71.8356 11.6548 71.7148 11.3968 71.4734 11.1932C71.2366 10.9896 70.8673 10.8333 70.3654 10.7244L68.5046 10.3338C67.4582 10.116 66.6841 9.74905 66.1822 9.23295C65.6803 8.71212 65.4317 8.05398 65.4364 7.25852C65.4317 6.58617 65.614 6.00379 65.9833 5.51136C66.3574 5.0142 66.8758 4.63068 67.5387 4.3608C68.2063 4.08617 68.9757 3.94886 69.8469 3.94886C71.1254 3.94886 72.1315 4.22112 72.8654 4.76562C73.604 5.31013 74.061 6.0464 74.2362 6.97443ZM78.9343 11.5767L78.9272 8.47301H79.3391L83.2596 4.09091H86.2638L81.4414 9.46023H80.9087L78.9343 11.5767ZM76.5906 15V0.454545H79.1616V15H76.5906ZM83.4371 15L79.886 10.0355L81.619 8.22443L86.5124 15H83.4371Z" fill="#2F80ED"/>
</svg>
